<?xml version="1.0" encoding="utf-8"?>
<!-- Generator: Adobe Illustrator 25.2.0, SVG Export Plug-In . SVG Version: 6.00 Build 0)  -->
<svg version="1.1" id="Layer_1" xmlns="http://www.w3.org/2000/svg" xmlns:xlink="http://www.w3.org/1999/xlink" x="0px" y="0px"
	 viewBox="0 0 2000 2000" style="enable-background:new 0 0 2000 2000;" xml:space="preserve">
<style type="text/css">
	.st0{fill:#FFFFFF;}
	.st1{fill:#003153;}
	.st2{fill:#0A7E8C;}
	.st3{fill:#8DD9CC;}
</style>
<rect x="-6.15" y="-10.38" class="st0" width="2012.29" height="2020.76"/>
<g>
	<g>
		<path class="st1" d="M396.91,1295.57c-2.41,1.98-3.62,4.6-3.62,7.87c0,3.27,1.47,5.87,4.42,7.8c2.95,1.93,9.75,4.21,20.41,6.83
			c10.66,2.62,18.94,6.57,24.83,11.81c5.89,5.25,8.84,12.91,8.84,22.99s-3.78,18.24-11.33,24.51c-7.56,6.27-17.49,9.41-29.82,9.41
			c-17.79,0-33.81-6.59-48.06-19.77l14.95-18.33c12.11,10.61,23.31,15.91,33.59,15.91c4.61,0,8.22-0.99,10.85-2.98
			c2.62-1.98,3.94-4.66,3.94-8.04c0-3.37-1.39-6.05-4.18-8.04c-2.79-1.98-8.31-3.99-16.56-6.03c-13.08-3.11-22.64-7.16-28.69-12.14
			c-6.06-4.98-9.08-12.81-9.08-23.47c0-10.67,3.83-18.89,11.49-24.67s17.22-8.68,28.69-8.68c7.5,0,15,1.28,22.5,3.86
			c7.5,2.57,14.04,6.21,19.61,10.93l-12.7,18.32c-9.75-7.39-19.83-11.09-30.22-11.09C402.61,1292.59,399.32,1293.58,396.91,1295.57z
			"/>
		<path class="st1" d="M505.32,1273.14h25.07v46.13l42.44-46.13h31.02l-44.68,49.67c3.86,5.36,10.98,15.35,21.38,29.98
			c10.39,14.62,18.16,25.53,23.31,32.71H574.6l-32.95-44.37l-11.25,12.54v31.83h-25.07V1273.14z"/>
		<path class="st1" d="M731.64,1385.5l-10.45-24.27h-47.1l-10.45,24.27h-26.68l48.54-112.36h24.27l48.54,112.36H731.64z
			 M697.73,1306.58l-14.14,32.63h28.13L697.73,1306.58z"/>
		<path class="st1" d="M803.5,1385.5v-112.36h25.07v90.01h47.9v22.34H803.5z"/>
		<path class="st1" d="M1007.96,1273.14v22.34h-55.94v23.15h50.31v21.38h-50.31v23.31h57.71v22.18h-82.78v-112.36H1007.96z"/>
		<path class="st1" d="M1165.08,1295.57c-2.41,1.98-3.62,4.6-3.62,7.87c0,3.27,1.47,5.87,4.42,7.8c2.95,1.93,9.75,4.21,20.41,6.83
			c10.66,2.62,18.94,6.57,24.83,11.81c5.89,5.25,8.84,12.91,8.84,22.99s-3.78,18.24-11.33,24.51c-7.56,6.27-17.49,9.41-29.82,9.41
			c-17.79,0-33.81-6.59-48.06-19.77l14.95-18.33c12.11,10.61,23.31,15.91,33.59,15.91c4.61,0,8.22-0.99,10.85-2.98
			c2.62-1.98,3.94-4.66,3.94-8.04c0-3.37-1.39-6.05-4.18-8.04c-2.79-1.98-8.31-3.99-16.56-6.03c-13.08-3.11-22.64-7.16-28.69-12.14
			c-6.06-4.98-9.08-12.81-9.08-23.47c0-10.67,3.83-18.89,11.49-24.67s17.22-8.68,28.69-8.68c7.5,0,15,1.28,22.5,3.86
			c7.5,2.57,14.04,6.21,19.61,10.93l-12.7,18.32c-9.75-7.39-19.83-11.09-30.22-11.09
			C1170.78,1292.59,1167.49,1293.58,1165.08,1295.57z"/>
		<path class="st1" d="M1352.26,1385.5l-10.45-24.27h-47.1l-10.45,24.27h-26.68l48.54-112.36h24.27l48.54,112.36H1352.26z
			 M1318.34,1306.58l-14.14,32.63h28.13L1318.34,1306.58z"/>
		<path class="st1" d="M1501.26,1273.14v22.02h-52.08v24.27h49.51v22.02h-49.51v44.04h-25.07v-112.36H1501.26z"/>
		<path class="st1" d="M1635.64,1273.14v22.34h-55.94v23.15h50.31v21.38h-50.31v23.31h57.71v22.18h-82.78v-112.36H1635.64z"/>
	</g>
	<g>
		<path class="st2" d="M1000,1217.65l-8.6-4.48c-122.39-63.71-237.88-233.4-237.66-349.18c0.11-56.64-0.05-151.91-0.05-152.87
			l-0.03-18.42l18.42-0.24c116.79-1.53,216.15-70.91,217.14-71.61l10.79-7.63l10.78,7.64c1.55,1.09,100.68,70.07,217.13,71.6
			l18.42,0.24l-0.03,18.42c0,0.96-0.16,96.23-0.05,152.87c0.23,115.78-115.27,285.47-237.66,349.18L1000,1217.65z M790.99,729
			c0.04,30.52,0.1,93.28,0.02,135.06c-0.2,99.57,102.02,250.65,208.99,311.36c106.96-60.71,209.18-211.8,208.99-311.36
			c-0.08-41.79-0.02-104.55,0.02-135.06c-98.48-6.47-180.36-52.56-209.01-70.62C971.35,676.44,889.47,722.53,790.99,729z"/>
		<path class="st3" d="M989.24,620.85c-1.02,0.72-100.4,70.05-217.17,71.61l-18.41,0.24l0.06,18.41c0,0.96,0.12,96.26,0,152.87
			c-0.18,115.81,115.27,285.48,237.68,349.17l8.58,4.5v-42.22c-106.93-60.69-209.13-211.77-208.95-311.38
			c0.06-41.74,0-104.53-0.06-135.06c98.48-6.48,180.4-52.54,209.01-70.59v-45.1L989.24,620.85z"/>
		<g>
			<g>
				<path class="st1" d="M1041.15,766.79c-0.26-0.17-0.31-0.17-0.31-0.17c-66.95-43.82-177.08-0.04-177.08-0.04
					s15,93.8,143.39,92.81c0,0,72.4,68.64-2.73,152.49c-21.34,23.8-24.52,51.58-24.52,51.58s7.98-18.17,39.11-29.29
					C1123.48,996.96,1177.75,847.13,1041.15,766.79z M944.54,801.14c-6.02-0.63-10.43-6.06-9.8-12.08
					c0.63-6.07,6.06-10.47,12.08-9.85c6.07,0.63,10.47,6.06,9.84,12.13C956.04,797.37,950.61,801.78,944.54,801.14z M1064.13,983.76
					c3.4-8.57,7.66-17.32,10.43-26.05c13.77-37.6,9.19-79.75-10.55-114.61C1102.12,880.43,1099.26,945.41,1064.13,983.76z"/>
				<path class="st1" d="M1125.34,840.74l10.89-57.36c0,0-31.19-23.34-105.16-33.5C1031.08,749.88,1098.45,776.17,1125.34,840.74z"
					/>
			</g>
			<path class="st1" d="M1002.47,869.08c0,0,13.56,37.08-33.52,60.06c0,0,10.27-10-1.82-25.81c-12.09-15.81-12.95-39.07-12.95-39.07
				S981.24,870.15,1002.47,869.08z"/>
			<path class="st1" d="M877.83,1044.28c0,0-2.64-49.38,33.93-61.49s60.48,14.5,65.38,36.11c6.41,28.27-13.38,69.05,22.39,79.88
				c0,0-26.64,18.31-47.49,4.62c-21.7-14.25-21.71-39.87-22.43-49.11c-0.72-9.24-4.03-28.87-20.89-30.22
				C892.01,1022.72,884.25,1037,877.83,1044.28z"/>
		</g>
	</g>
</g>
</svg>
